<svg viewBox="0 0 64 64" xmlns="http://www.w3.org/2000/svg"><circle cx="32" cy="32" fill="#ffdd67" r="30"/><path d="m47.9 38h-31.8c-.7 0-1.1.5-1.1 1 0 7.3 6 15 17 15s17-7.7 17-15c0-.5-.4-1-1.1-1" fill="#664e27"/><path d="m41.2 44h-9.2-9.2c-.7 0-.8.3-.8.8v4c0 8.8 4.5 13.2 10 13.2s10-4.4 10-13.2v-4c0-.5-.1-.8-.8-.8" fill="#ff717f"/><path d="m33.5 44-1.5 13.8-1.5-13.8z" fill="#e2596c"/><path d="m51.7 23.4c.6.3.3 1-.2 1.1-2.7.4-5.5.9-8.3 2.4 4 .7 7.2 2.7 9 4.8.4.5-.1 1.1-.5 1-4.8-1.7-9.7-2.7-15.8-2-.5 0-.9-.2-.8-.7 1.6-7.3 10.9-10 16.6-6.6m-39.4 0c-.6.3-.3 1 .2 1.1 2.7.4 5.5.9 8.3 2.4-4 .7-7.2 2.7-9 4.8-.4.5.1 1.1.5 1 4.8-1.7 9.7-2.7 15.8-2 .5 0 .9-.2.8-.7-1.6-7.3-10.9-10-16.6-6.6" fill="#664e27"/></svg>