<svg viewBox="0 0 64 64" xmlns="http://www.w3.org/2000/svg"><circle cx="32" cy="32" fill="#ffdd67" r="30"/><circle cx="42.8" cy="24.6" fill="#fff" r="10"/><g fill="#664e27"><circle cx="42.8" cy="24.6" r="4.5"/><path d="m51 29.1c-1.9-4.1-4.7-6.1-7.5-6.1s-5.6 2-7.5 6.1c-.2.4.8 1.2 1.3.8 1.8-1.5 4-2.1 6.2-2.1s4.4.6 6.2 2.1c.5.4 1.5-.4 1.3-.8" transform="translate(-23)"/><path d="m47.9 38h-31.8c-.7 0-1.1.5-1.1 1 0 7.3 6 15 17 15s17-7.7 17-15c0-.5-.4-1-1.1-1"/></g><path d="m41.2 44h-9.2-9.2c-.7 0-.8.3-.8.8v4c0 8.8 4.5 13.2 10 13.2s10-4.4 10-13.2v-4c0-.5-.1-.8-.8-.8" fill="#ff717f"/><path d="m33.5 44-1.5 13.8-1.5-13.8z" fill="#e2596c"/></svg>